:FULLY-SPECIFIED
:FORCE-ALL-JOINTS-BE-3DOF
:DEGREES
3160
root 0.952109 16.9247 -33.3607 1086.09 5.68293 -3.59054
lfemur -19.0386 -2.43973 -8.18433
ltibia 35.4761 0 0
lfoot -16.4936 7.17723 0
ltoes -39.0674 0 0
rfemur -19.7713 -0.412044 18.5199
rtibia 39.6165 0 0
rfoot -12.3119 -21.3373 0
rtoes -16.4658 0 0
lowerback 5.87206 1.45111 -0.448734
upperback -3.96486 2.04246 1.92558
thorax -7.54303 1.08494 2.02204
lowerneck -5.00498 -5.15924 -7.95674
upperneck 8.62465 -6.81868 6.03894
head 3.87114 -3.35748 2.77994
lclavicle -2.58188e-14 -1.10659e-14 0
lhumerus -33.5359 -19.7491 95.4136
lradius 54.3363 0 0
lwrist -8.3101 0 0
lhand -34.0892 389.82 0
lfingers 7.12502 0 0
lthumb -7.2656 -660.325 0
rclavicle -2.58188e-14 -1.10659e-14 0
rhumerus -35.5549 15.6565 -81.4503
rradius 53.8028 0 0
rwrist 0.310541 0 0
rhand -29.6204 -394.138 0
rfingers 7.12502 0 0
rthumb -2.95082 295.903 0
3161
root 0.959318 16.9273 -33.3565 1086.08 5.62524 -3.6152
lfemur -18.9953 -2.43287 -8.17941
ltibia 35.461 0 0
lfoot -16.4868 7.2255 0
ltoes -39.1755 0 0
rfemur -19.7383 -0.400672 18.5296
rtibia 39.5588 0 0
rfoot -12.2981 -21.2972 0
rtoes -16.4555 0 0
lowerback 5.85829 1.46271 -0.448562
upperback -3.96521 2.05782 1.92322
thorax -7.53596 1.0924 2.01789
lowerneck -5.03449 -5.1514 -7.94673
upperneck 8.67882 -6.80753 6.02492
head 3.89093 -3.35184 2.77361
lclavicle -2.23363e-14 -1.34414e-14 0
lhumerus -33.4764 -19.6127 95.3574
lradius 53.9671 0 0
lwrist -8.3967 0 0
lhand -34.127 389.747 0
lfingers 7.12502 0 0
lthumb -7.30212 -660.399 0
rclavicle -2.23363e-14 -1.34414e-14 0
rhumerus -35.538 15.4589 -81.4404
rradius 53.453 0 0
rwrist 0.343664 0 0
rhand -29.5655 -394.104 0
rfingers 7.12502 0 0
rthumb -2.89785 295.937 0
3162
root 0.966526 16.9298 -33.3522 1086.08 5.53561 -3.65572
lfemur -18.926 -2.42619 -8.17211
ltibia 35.4356 0 0
lfoot -16.4754 7.30619 0
ltoes -39.3239 0 0
rfemur -19.6814 -0.377853 18.5443
rtibia 39.4601 0 0
rfoot -12.2724 -21.2372 0
rtoes -16.4446 0 0
lowerback 5.8325 1.4793 -0.450963
upperback -3.9694 2.07953 1.91914
thorax -7.52629 1.10308 2.01284
lowerneck -5.0794 -5.14118 -7.93254
upperneck 8.76815 -6.79324 6.00605
head 3.92341 -3.34453 2.76466
lclavicle -1.83249e-14 -1.66239e-14 0
lhumerus -33.3983 -19.3816 95.2628
lradius 53.392 0 0
lwrist -8.54866 0 0
lhand -34.1862 389.648 0
lfingers 7.12502 0 0
lthumb -7.35922 -660.501 0
rclavicle -1.83249e-14 -1.66239e-14 0
rhumerus -35.517 15.1462 -81.4271
rradius 52.8767 0 0
rwrist 0.417619 0 0
rhand -29.4879 -394.049 0
rfingers 7.12502 0 0
rthumb -2.82291 295.99 0
3163
root 0.973734 16.9324 -33.348 1086.07 5.40685 -3.71587
lfemur -18.8247 -2.42013 -8.16195
ltibia 35.3973 0 0
lfoot -16.4581 7.42716 0
ltoes -39.5199 0 0
rfemur -19.5945 -0.340523 18.5648
rtibia 39.3106 0 0
rfoot -12.2319 -21.1528 0
rtoes -16.4336 0 0
lowerback 5.79158 1.50189 -0.456767
upperback -3.97862 2.1088 1.9129
thorax -7.51359 1.11764 2.00679
lowerneck -5.14307 -5.1282 -7.91334
upperneck 8.90107 -6.7754 5.98153
head 3.9716 -3.33532 2.75258
lclavicle -1.37962e-14 -2.07482e-14 0
lhumerus -33.2985 -19.0327 95.1206
lradius 52.5647 0 0
lwrist -8.78236 0 0
lhand -34.2715 389.516 0
lfingers 7.12502 0 0
lthumb -7.44158 -660.635 0
rclavicle -1.37962e-14 -2.07482e-14 0
rhumerus -35.4915 14.6918 -81.4098
rradius 52.0198 0 0
rwrist 0.543715 0 0
rhand -29.3831 -393.971 0
rfingers 7.12502 0 0
rthumb -2.72171 296.067 0
3164
root 0.980943 16.935 -33.3437 1086.06 5.23177 -3.79944
lfemur -18.6854 -2.41508 -8.1484
ltibia 35.3434 0 0
lfoot -16.4338 7.59625 0
ltoes -39.7707 0 0
rfemur -19.4718 -0.28562 18.5924
rtibia 39.1001 0 0
rfoot -12.1735 -21.0398 0
rtoes -16.4228 0 0
lowerback 5.73239 1.53146 -0.466805
upperback -3.99408 2.14687 1.90409
thorax -7.49738 1.13671 1.99968
lowerneck -5.22889 -5.11211 -7.88831
upperneck 9.08599 -6.75359 5.95053
head 4.03853 -3.32396 2.73686
lclavicle -8.76168e-15 -2.59488e-14 0
lhumerus -33.1742 -18.5428 94.9213
lradius 51.4385 0 0
lwrist -9.11415 0 0
lhand -34.3878 389.349 0
lfingers 7.12502 0 0
lthumb -7.55388 -660.806 0
rclavicle -8.76168e-15 -2.59488e-14 0
rhumerus -35.461 14.0693 -81.3878
rradius 50.828 0 0
rwrist 0.733264 0 0
rhand -29.2467 -393.863 0
rfingers 7.12502 0 0
rthumb -2.58999 296.173 0
3165
root 0.988152 16.9375 -33.3395 1086.04 5.00315 -3.91021
lfemur -18.5019 -2.41146 -8.13098
ltibia 35.2716 0 0
lfoot -16.4014 7.82131 0
ltoes -40.0837 0 0
rfemur -19.3073 -0.21008 18.6281
rtibia 38.8186 0 0
rfoot -12.0941 -20.894 0
rtoes -16.4126 0 0
lowerback 5.65182 1.56902 -0.481905
upperback -4.01698 2.19497 1.89227
thorax -7.47721 1.16093 1.99143
lowerneck -5.34024 -5.09256 -7.85663
upperneck 9.33132 -6.72739 5.91223
head 4.12723 -3.31022 2.717
lclavicle -3.23271e-15 -3.23603e-14 0
lhumerus -33.0224 -17.8888 94.6558
lradius 49.9669 0 0
lwrist -9.56041 0 0
lhand -34.54 389.14 0
lfingers 7.12502 0 0
lthumb -7.70078 -661.02 0
rclavicle -3.23271e-15 -3.23603e-14 0
rhumerus -35.4251 13.2521 -81.3606
rradius 49.2472 0 0
rwrist 0.997575 0 0
rhand -29.0743 -393.721 0
rfingers 7.12502 0 0
rthumb -2.42347 296.312 0
